<svg width="22" height="22" viewBox="0 0 22 22" fill="none" xmlns="http://www.w3.org/2000/svg">
<path d="M21.165 3.48755C21.3442 3.31467 21.4871 3.10784 21.5855 2.87913C21.6838 2.65042 21.7357 2.40441 21.738 2.15545C21.7402 1.90649 21.6929 1.65957 21.5987 1.4291C21.5046 1.19862 21.3655 0.989212 21.1895 0.813081C21.0135 0.63695 20.8042 0.497627 20.5739 0.403242C20.3435 0.308856 20.0966 0.2613 19.8476 0.263345C19.5987 0.26539 19.3526 0.316997 19.1238 0.415154C18.895 0.513312 18.688 0.656054 18.515 0.835052L11 8.34755L3.48749 0.835052C3.31584 0.650835 3.10884 0.50308 2.87884 0.4006C2.64884 0.29812 2.40056 0.243015 2.1488 0.238573C1.89704 0.234131 1.64697 0.280443 1.4135 0.374746C1.18003 0.469048 0.967945 0.60941 0.789898 0.787457C0.611851 0.965504 0.47149 1.17759 0.377187 1.41106C0.282885 1.64453 0.236572 1.8946 0.241014 2.14636C0.245456 2.39812 0.300561 2.6464 0.403041 2.8764C0.505521 3.1064 0.653277 3.3134 0.837494 3.48505L8.34499 11.0001L0.832494 18.5126C0.501294 18.868 0.320985 19.3381 0.329556 19.8239C0.338127 20.3096 0.534907 20.7731 0.87844 21.1166C1.22197 21.4601 1.68543 21.6569 2.17119 21.6655C2.65694 21.6741 3.12706 21.4938 3.48249 21.1626L11 13.6501L18.5125 21.1651C18.8679 21.4963 19.338 21.6766 19.8238 21.668C20.3096 21.6594 20.773 21.4626 21.1165 21.1191C21.4601 20.7756 21.6569 20.3121 21.6654 19.8264C21.674 19.3406 21.4937 18.8705 21.1625 18.5151L13.655 11.0001L21.165 3.48755Z" fill="#333333"/>
</svg>
