<svg width="186" height="35" viewBox="0 0 186 35" fill="none" xmlns="http://www.w3.org/2000/svg">
<path d="M0.1875 0.714287H3.61607V4.14286H0.1875V0.714287ZM3.61607 0.714287H7.04464V4.14286H3.61607V0.714287ZM7.04464 0.714287H10.4732V4.14286H7.04464V0.714287ZM10.4732 0.714287H13.9018V4.14286H10.4732V0.714287ZM13.9018 0.714287H17.3304V4.14286H13.9018V0.714287ZM17.3304 0.714287H20.7589V4.14286H17.3304V0.714287ZM17.3304 4.14286H20.7589V7.57143H17.3304V4.14286ZM13.9018 4.14286H17.3304V7.57143H13.9018V4.14286ZM10.4732 4.14286H13.9018V7.57143H10.4732V4.14286ZM7.04464 4.14286H10.4732V7.57143H7.04464V4.14286ZM3.61607 4.14286H7.04464V7.57143H3.61607V4.14286ZM0.1875 4.14286H3.61607V7.57143H0.1875V4.14286ZM7.04464 7.57143H10.4732V11H7.04464V7.57143ZM7.04464 11H10.4732V14.4286H7.04464V11ZM7.04464 14.4286H10.4732V17.8571H7.04464V14.4286ZM7.04464 17.8571H10.4732V21.2857H7.04464V17.8571ZM7.04464 21.2857H10.4732V24.7143H7.04464V21.2857ZM7.04464 24.7143H10.4732V28.1429H7.04464V24.7143ZM10.4732 21.2857H13.9018V24.7143H10.4732V21.2857ZM10.4732 17.8571H13.9018V21.2857H10.4732V17.8571ZM10.4732 14.4286H13.9018V17.8571H10.4732V14.4286ZM10.4732 11H13.9018V14.4286H10.4732V11ZM10.4732 7.57143H13.9018V11H10.4732V7.57143ZM10.4732 24.7143H13.9018V28.1429H10.4732V24.7143ZM10.4732 28.1429H13.9018V31.5714H10.4732V28.1429ZM10.4732 31.5714H13.9018V35H10.4732V31.5714ZM7.04464 31.5714H10.4732V35H7.04464V31.5714ZM7.04464 28.1429H10.4732V31.5714H7.04464V28.1429ZM31.0446 7.57143H34.4732V11H31.0446V7.57143ZM27.6161 7.57143H31.0446V11H27.6161V7.57143ZM27.6161 11H31.0446V14.4286H27.6161V11ZM31.0446 11H34.4732V14.4286H31.0446V11ZM34.4732 7.57143H37.9018V11H34.4732V7.57143ZM37.9018 7.57143H41.3304V11H37.9018V7.57143ZM41.3304 7.57143H44.7589V11H41.3304V7.57143ZM41.3304 11H44.7589V14.4286H41.3304V11ZM37.9018 11H41.3304V14.4286H37.9018V11ZM44.7589 11H48.1875V14.4286H44.7589V11ZM44.7589 14.4286H48.1875V17.8571H44.7589V14.4286ZM44.7589 28.1429H48.1875V31.5714H44.7589V28.1429ZM41.3304 28.1429H44.7589V31.5714H41.3304V28.1429ZM41.3304 14.4286H44.7589V17.8571H41.3304V14.4286ZM37.9018 28.1429H41.3304V31.5714H37.9018V28.1429ZM41.3304 31.5714H44.7589V35H41.3304V31.5714ZM37.9018 31.5714H41.3304V35H37.9018V31.5714ZM34.4732 31.5714H37.9018V35H34.4732V31.5714ZM31.0446 31.5714H34.4732V35H31.0446V31.5714ZM27.6161 31.5714H31.0446V35H27.6161V31.5714ZM27.6161 28.1429H31.0446V31.5714H27.6161V28.1429ZM31.0446 28.1429H34.4732V31.5714H31.0446V28.1429ZM27.6161 24.7143H31.0446V28.1429H27.6161V24.7143ZM24.1875 28.1429H27.6161V31.5714H24.1875V28.1429ZM24.1875 24.7143H27.6161V28.1429H24.1875V24.7143ZM24.1875 21.2857H27.6161V24.7143H24.1875V21.2857ZM24.1875 17.8571H27.6161V21.2857H24.1875V17.8571ZM24.1875 14.4286H27.6161V17.8571H24.1875V14.4286ZM24.1875 11H27.6161V14.4286H24.1875V11ZM27.6161 14.4286H31.0446V17.8571H27.6161V14.4286ZM27.6161 17.8571H31.0446V21.2857H27.6161V17.8571ZM27.6161 21.2857H31.0446V24.7143H27.6161V21.2857ZM34.4732 28.1429H37.9018V31.5714H34.4732V28.1429ZM34.4732 11H37.9018V14.4286H34.4732V11ZM41.3304 17.8571H44.7589V21.2857H41.3304V17.8571ZM44.7589 17.8571H48.1875V21.2857H44.7589V17.8571ZM31.0446 21.2857H34.4732V24.7143H31.0446V21.2857ZM34.4732 21.2857H37.9018V24.7143H34.4732V21.2857ZM37.9018 21.2857H41.3304V24.7143H37.9018V21.2857ZM41.3304 21.2857H44.7589V24.7143H41.3304V21.2857ZM44.7589 21.2857H48.1875V24.7143H44.7589V21.2857ZM37.9018 17.8571H41.3304V21.2857H37.9018V17.8571ZM34.4732 17.8571H37.9018V21.2857H34.4732V17.8571ZM31.0446 17.8571H34.4732V21.2857H31.0446V17.8571ZM58.4821 7.57143H61.9107V11H58.4821V7.57143ZM55.0536 7.57143H58.4821V11H55.0536V7.57143ZM55.0536 11H58.4821V14.4286H55.0536V11ZM58.4821 11H61.9107V14.4286H58.4821V11ZM61.9107 7.57143H65.3393V11H61.9107V7.57143ZM65.3393 7.57143H68.7679V11H65.3393V7.57143ZM68.7679 7.57143H72.1964V11H68.7679V7.57143ZM68.7679 11H72.1964V14.4286H68.7679V11ZM65.3393 11H68.7679V14.4286H65.3393V11ZM72.1964 11H75.625V14.4286H72.1964V11ZM72.1964 14.4286H75.625V17.8571H72.1964V14.4286ZM72.1964 24.7143H75.625V28.1429H72.1964V24.7143ZM72.1964 28.1429H75.625V31.5714H72.1964V28.1429ZM68.7679 28.1429H72.1964V31.5714H68.7679V28.1429ZM68.7679 24.7143H72.1964V28.1429H68.7679V24.7143ZM68.7679 14.4286H72.1964V17.8571H68.7679V14.4286ZM65.3393 28.1429H68.7679V31.5714H65.3393V28.1429ZM68.7679 31.5714H72.1964V35H68.7679V31.5714ZM65.3393 31.5714H68.7679V35H65.3393V31.5714ZM61.9107 31.5714H65.3393V35H61.9107V31.5714ZM58.4821 31.5714H61.9107V35H58.4821V31.5714ZM55.0536 31.5714H58.4821V35H55.0536V31.5714ZM55.0536 28.1429H58.4821V31.5714H55.0536V28.1429ZM58.4821 28.1429H61.9107V31.5714H58.4821V28.1429ZM55.0536 24.7143H58.4821V28.1429H55.0536V24.7143ZM51.625 28.1429H55.0536V31.5714H51.625V28.1429ZM51.625 24.7143H55.0536V28.1429H51.625V24.7143ZM51.625 21.2857H55.0536V24.7143H51.625V21.2857ZM51.625 17.8571H55.0536V21.2857H51.625V17.8571ZM51.625 14.4286H55.0536V17.8571H51.625V14.4286ZM51.625 11H55.0536V14.4286H51.625V11ZM55.0536 14.4286H58.4821V17.8571H55.0536V14.4286ZM55.0536 17.8571H58.4821V21.2857H55.0536V17.8571ZM55.0536 21.2857H58.4821V24.7143H55.0536V21.2857ZM61.9107 28.1429H65.3393V31.5714H61.9107V28.1429ZM61.9107 11H65.3393V14.4286H61.9107V11ZM79.0625 11H82.4911V14.4286H79.0625V11ZM79.0625 7.57143H82.4911V11H79.0625V7.57143ZM82.4911 7.57143H85.9196V11H82.4911V7.57143ZM82.4911 11H85.9196V14.4286H82.4911V11ZM82.4911 14.4286H85.9196V17.8571H82.4911V14.4286ZM82.4911 17.8571H85.9196V21.2857H82.4911V17.8571ZM82.4911 21.2857H85.9196V24.7143H82.4911V21.2857ZM79.0625 21.2857H82.4911V24.7143H79.0625V21.2857ZM79.0625 17.8571H82.4911V21.2857H79.0625V17.8571ZM79.0625 14.4286H82.4911V17.8571H79.0625V14.4286ZM79.0625 24.7143H82.4911V28.1429H79.0625V24.7143ZM82.4911 24.7143H85.9196V28.1429H82.4911V24.7143ZM82.4911 28.1429H85.9196V31.5714H82.4911V28.1429ZM82.4911 31.5714H85.9196V35H82.4911V31.5714ZM79.0625 31.5714H82.4911V35H79.0625V31.5714ZM79.0625 28.1429H82.4911V31.5714H79.0625V28.1429ZM96.2054 31.5714H99.6339V35H96.2054V31.5714ZM99.6339 31.5714H103.062V35H99.6339V31.5714ZM99.6339 28.1429H103.062V31.5714H99.6339V28.1429ZM99.6339 24.7143H103.062V28.1429H99.6339V24.7143ZM99.6339 21.2857H103.062V24.7143H99.6339V21.2857ZM99.6339 17.8571H103.062V21.2857H99.6339V17.8571ZM99.6339 14.4286H103.062V17.8571H99.6339V14.4286ZM99.6339 11H103.062V14.4286H99.6339V11ZM96.2054 17.8571H99.6339V21.2857H96.2054V17.8571ZM96.2054 21.2857H99.6339V24.7143H96.2054V21.2857ZM96.2054 24.7143H99.6339V28.1429H96.2054V24.7143ZM96.2054 28.1429H99.6339V31.5714H96.2054V28.1429ZM96.2054 14.4286H99.6339V17.8571H96.2054V14.4286ZM85.9196 11H89.3482V14.4286H85.9196V11ZM89.3482 11H92.7768V14.4286H89.3482V11ZM92.7768 11H96.2054V14.4286H92.7768V11ZM92.7768 7.57143H96.2054V11H92.7768V7.57143ZM96.2054 7.57143H99.6339V11H96.2054V7.57143ZM96.2054 11H99.6339V14.4286H96.2054V11ZM89.3482 7.57143H92.7768V11H89.3482V7.57143ZM79.0625 0.714287H82.4911V4.14286H79.0625V0.714287ZM82.4911 0.714287H85.9196V4.14286H82.4911V0.714287ZM82.4911 4.14286H85.9196V7.57143H82.4911V4.14286ZM79.0625 4.14286H82.4911V7.57143H79.0625V4.14286ZM106.5 0.714287H109.929V4.14286H106.5V0.714287ZM109.929 0.714287H113.357V4.14286H109.929V0.714287ZM109.929 4.14286H113.357V7.57143H109.929V4.14286ZM109.929 7.57143H113.357V11H109.929V7.57143ZM109.929 11H113.357V14.4286H109.929V11ZM106.5 11H109.929V14.4286H106.5V11ZM106.5 7.57143H109.929V11H106.5V7.57143ZM106.5 4.14286H109.929V7.57143H106.5V4.14286ZM106.5 14.4286H109.929V17.8571H106.5V14.4286ZM106.5 17.8571H109.929V21.2857H106.5V17.8571ZM106.5 21.2857H109.929V24.7143H106.5V21.2857ZM109.929 17.8571H113.357V21.2857H109.929V17.8571ZM109.929 14.4286H113.357V17.8571H109.929V14.4286ZM109.929 21.2857H113.357V24.7143H109.929V21.2857ZM109.929 24.7143H113.357V28.1429H109.929V24.7143ZM106.5 28.1429H109.929V31.5714H106.5V28.1429ZM106.5 24.7143H109.929V28.1429H106.5V24.7143ZM106.5 31.5714H109.929V35H106.5V31.5714ZM109.929 31.5714H113.357V35H109.929V31.5714ZM109.929 28.1429H113.357V31.5714H109.929V28.1429ZM113.357 31.5714H116.786V35H113.357V31.5714ZM116.786 31.5714H120.214V35H116.786V31.5714ZM120.214 31.5714H123.643V35H120.214V31.5714ZM120.214 28.1429H123.643V31.5714H120.214V28.1429ZM116.786 28.1429H120.214V31.5714H116.786V28.1429ZM113.357 28.1429H116.786V31.5714H113.357V28.1429ZM127.062 0.714287H133.92V7.57143H127.062V0.714287ZM127.062 11H133.92V35H127.062V11ZM137.375 11H140.804V14.4286H137.375V11ZM137.375 7.57143H140.804V11H137.375V7.57143ZM140.804 7.57143H144.232V11H140.804V7.57143ZM140.804 11H144.232V14.4286H140.804V11ZM140.804 14.4286H144.232V17.8571H140.804V14.4286ZM140.804 17.8571H144.232V21.2857H140.804V17.8571ZM140.804 21.2857H144.232V24.7143H140.804V21.2857ZM137.375 21.2857H140.804V24.7143H137.375V21.2857ZM137.375 17.8571H140.804V21.2857H137.375V17.8571ZM137.375 14.4286H140.804V17.8571H137.375V14.4286ZM137.375 24.7143H140.804V28.1429H137.375V24.7143ZM140.804 24.7143H144.232V28.1429H140.804V24.7143ZM140.804 28.1429H144.232V31.5714H140.804V28.1429ZM140.804 31.5714H144.232V35H140.804V31.5714ZM137.375 31.5714H140.804V35H137.375V31.5714ZM137.375 28.1429H140.804V31.5714H137.375V28.1429ZM154.518 31.5714H157.946V35H154.518V31.5714ZM157.946 31.5714H161.375V35H157.946V31.5714ZM157.946 28.1429H161.375V31.5714H157.946V28.1429ZM157.946 24.7143H161.375V28.1429H157.946V24.7143ZM157.946 21.2857H161.375V24.7143H157.946V21.2857ZM157.946 17.8571H161.375V21.2857H157.946V17.8571ZM157.946 14.4286H161.375V17.8571H157.946V14.4286ZM157.946 11H161.375V14.4286H157.946V11ZM154.518 17.8571H157.946V21.2857H154.518V17.8571ZM154.518 21.2857H157.946V24.7143H154.518V21.2857ZM154.518 24.7143H157.946V28.1429H154.518V24.7143ZM154.518 28.1429H157.946V31.5714H154.518V28.1429ZM154.518 14.4286H157.946V17.8571H154.518V14.4286ZM144.232 11H147.661V14.4286H144.232V11ZM147.661 11H151.089V14.4286H147.661V11ZM151.089 11H154.518V14.4286H151.089V11ZM151.089 7.57143H154.518V11H151.089V7.57143ZM154.518 7.57143H157.946V11H154.518V7.57143ZM154.518 11H157.946V14.4286H154.518V11ZM147.661 7.57143H151.089V11H147.661V7.57143ZM164.812 0.714287H168.241V4.14286H164.812V0.714287ZM168.241 0.714287H171.67V4.14286H168.241V0.714287ZM168.241 4.14286H171.67V7.57143H168.241V4.14286ZM168.241 7.57143H171.67V11H168.241V7.57143ZM168.241 11H171.67V14.4286H168.241V11ZM164.812 11H168.241V14.4286H164.812V11ZM164.812 7.57143H168.241V11H164.812V7.57143ZM164.812 4.14286H168.241V7.57143H164.812V4.14286ZM164.812 14.4286H168.241V17.8571H164.812V14.4286ZM164.812 17.8571H168.241V21.2857H164.812V17.8571ZM164.812 21.2857H168.241V24.7143H164.812V21.2857ZM164.812 24.7143H168.241V28.1429H164.812V24.7143ZM164.812 28.1429H168.241V31.5714H164.812V28.1429ZM164.812 31.5714H168.241V35H164.812V31.5714ZM168.241 31.5714H171.67V35H168.241V31.5714ZM168.241 28.1429H171.67V31.5714H168.241V28.1429ZM168.241 24.7143H171.67V28.1429H168.241V24.7143ZM168.241 21.2857H171.67V24.7143H168.241V21.2857ZM168.241 17.8571H171.67V21.2857H168.241V17.8571ZM168.241 14.4286H171.67V17.8571H168.241V14.4286ZM171.67 17.8571H175.098V21.2857H171.67V17.8571ZM175.098 17.8571H178.527V21.2857H175.098V17.8571ZM175.098 14.4286H178.527V17.8571H175.098V14.4286ZM178.527 14.4286H181.955V17.8571H178.527V14.4286ZM178.527 11H181.955V14.4286H178.527V11ZM178.527 7.57143H181.955V11H178.527V7.57143ZM181.955 7.57143H185.384V11H181.955V7.57143ZM181.955 11H185.384V14.4286H181.955V11ZM175.098 21.2857H178.527V24.7143H175.098V21.2857ZM178.527 21.2857H181.955V24.7143H178.527V21.2857ZM181.955 24.7143H185.384V28.1429H181.955V24.7143ZM178.527 24.7143H181.955V28.1429H178.527V24.7143ZM178.527 28.1429H181.955V31.5714H178.527V28.1429ZM181.955 28.1429H185.384V31.5714H181.955V28.1429ZM181.955 31.5714H185.384V35H181.955V31.5714ZM178.527 31.5714H181.955V35H178.527V31.5714Z" fill="#333333"/>
</svg>
