<svg width="48" height="48" viewBox="0 0 48 48" fill="none" xmlns="http://www.w3.org/2000/svg">
<g clip-path="url(#clip0_304_199)">
<path d="M6 12V10C5.46957 10 4.96086 10.2107 4.58579 10.5858C4.21071 10.9609 4 11.4696 4 12H6ZM28 12H30C30 11.4696 29.7893 10.9609 29.4142 10.5858C29.0391 10.2107 28.5304 10 28 10V12ZM28 24V22C27.4696 22 26.9609 22.2107 26.5858 22.5858C26.2107 22.9609 26 23.4696 26 24H28ZM6 14H28V10H6V14ZM26 12V44H30V12H26ZM8 40V12H4V40H8ZM28 26H38V22H28V26ZM44 32V40H48V32H44ZM30 44V24H26V44H30ZM39.414 45.414C39.0389 45.7889 38.5303 45.9996 38 45.9996C37.4697 45.9996 36.9611 45.7889 36.586 45.414L33.758 48.242C34.8832 49.3668 36.409 49.9987 38 49.9987C39.591 49.9987 41.1168 49.3668 42.242 48.242L39.414 45.414ZM36.586 42.586C36.9611 42.2111 37.4697 42.0004 38 42.0004C38.5303 42.0004 39.0389 42.2111 39.414 42.586L42.242 39.758C41.1168 38.6332 39.591 38.0013 38 38.0013C36.409 38.0013 34.8832 38.6332 33.758 39.758L36.586 42.586ZM15.414 45.414C15.0389 45.7889 14.5303 45.9996 14 45.9996C13.4697 45.9996 12.9611 45.7889 12.586 45.414L9.758 48.242C10.8832 49.3668 12.409 49.9987 14 49.9987C15.591 49.9987 17.1168 49.3668 18.242 48.242L15.414 45.414ZM12.586 42.586C12.9611 42.2111 13.4697 42.0004 14 42.0004C14.5303 42.0004 15.0389 42.2111 15.414 42.586L18.242 39.758C17.1168 38.6332 15.591 38.0013 14 38.0013C12.409 38.0013 10.8832 38.6332 9.758 39.758L12.586 42.586ZM39.414 42.586C39.806 42.976 40 43.486 40 44H44C44 42.468 43.414 40.928 42.242 39.758L39.414 42.586ZM40 44C39.9999 44.5304 39.7891 45.039 39.414 45.414L42.242 48.242C43.3673 47.117 43.9997 45.5912 44 44H40ZM34 42H28V46H34V42ZM36.586 45.414C36.2109 45.039 36.0001 44.5304 36 44H32C32 45.532 32.586 47.072 33.758 48.242L36.586 45.414ZM36 44C36.0001 43.4696 36.2109 42.961 36.586 42.586L33.758 39.758C32.6327 40.883 32.0003 42.4088 32 44H36ZM12.586 45.414C12.2109 45.039 12.0001 44.5304 12 44H8C8 45.532 8.586 47.072 9.758 48.242L12.586 45.414ZM12 44C12.0001 43.4696 12.2109 42.961 12.586 42.586L9.758 39.758C8.6327 40.883 8.00034 42.4088 8 44H12ZM28 42H18V46H28V42ZM15.414 42.586C15.806 42.976 16 43.486 16 44H20C20 42.468 19.414 40.928 18.242 39.758L15.414 42.586ZM16 44C15.9999 44.5304 15.7891 45.039 15.414 45.414L18.242 48.242C19.3673 47.117 19.9997 45.5912 20 44H16ZM44 40C44 40.5304 43.7893 41.0391 43.4142 41.4142C43.0391 41.7893 42.5304 42 42 42V46C43.5913 46 45.1174 45.3679 46.2426 44.2426C47.3679 43.1174 48 41.5913 48 40H44ZM38 26C39.5913 26 41.1174 26.6321 42.2426 27.7574C43.3679 28.8826 44 30.4087 44 32H48C48 30.6868 47.7413 29.3864 47.2388 28.1732C46.7362 26.9599 45.9997 25.8575 45.0711 24.9289C44.1425 24.0003 43.0401 23.2638 41.8268 22.7612C40.6136 22.2587 39.3132 22 38 22V26ZM4 40C4 41.5913 4.63214 43.1174 5.75736 44.2426C6.88258 45.3679 8.4087 46 10 46V42C9.46957 42 8.96086 41.7893 8.58579 41.4142C8.21071 41.0391 8 40.5304 8 40H4Z" fill="black"/>
</g>
<defs>
<clipPath id="clip0_304_199">
<rect width="48" height="48" fill="white"/>
</clipPath>
</defs>
</svg>
