<svg width="33" height="40" viewBox="0 0 33 40" fill="none" xmlns="http://www.w3.org/2000/svg">
<path d="M32.3162 15.7599L16.4845 0.0101318L0.652819 15.7599C0.46603 15.9021 0.311981 16.0828 0.201105 16.2898C0.0902279 16.4967 0.0251111 16.7251 0.0101617 16.9594C-0.00478767 17.1937 0.0307804 17.4285 0.114457 17.6478C0.198133 17.8672 0.327965 18.066 0.495163 18.2308C0.66236 18.3957 0.863021 18.5227 1.08356 18.6032C1.3041 18.6837 1.53936 18.7159 1.77343 18.6976C2.0075 18.6793 2.23491 18.611 2.44025 18.4971C2.6456 18.3833 2.82409 18.2267 2.96365 18.0379L14.8456 6.2543V37.6062C14.8456 38.0409 15.0183 38.4578 15.3256 38.7651C15.633 39.0725 16.0498 39.2451 16.4845 39.2451C16.9191 39.2451 17.336 39.0725 17.6434 38.7651C17.9507 38.4578 18.1234 38.0409 18.1234 37.6062V6.2543L30.0053 18.0379C30.3139 18.3443 30.7316 18.5156 31.1665 18.5141C31.6014 18.5126 32.0179 18.3383 32.3243 18.0297C32.6308 17.7211 32.8021 17.3034 32.8005 16.8685C32.799 16.4336 32.6248 16.0171 32.3162 15.7107V15.7599Z" fill="#9652C7"/>
</svg>
