<svg width="47" height="48" viewBox="0 0 47 48" fill="none" xmlns="http://www.w3.org/2000/svg">
<path d="M29.375 42V26C29.375 25.4696 29.1687 24.9609 28.8014 24.5858C28.4342 24.2107 27.936 24 27.4167 24H19.5833C19.064 24 18.5658 24.2107 18.1986 24.5858C17.8313 24.9609 17.625 25.4696 17.625 26V42" stroke="black" stroke-width="2" stroke-linecap="round" stroke-linejoin="round"/>
<path d="M5.875 20C5.87486 19.4181 5.99903 18.8432 6.23883 18.3154C6.47864 17.7876 6.82831 17.3196 7.26346 16.944L20.9718 4.946C21.6787 4.33581 22.5744 4.00104 23.5 4.00104C24.4256 4.00104 25.3213 4.33581 26.0282 4.946L39.7365 16.944C40.1717 17.3196 40.5214 17.7876 40.7612 18.3154C41.001 18.8432 41.1251 19.4181 41.125 20V38C41.125 39.0609 40.7124 40.0783 39.9778 40.8284C39.2433 41.5786 38.2471 42 37.2083 42H9.79167C8.7529 42 7.75668 41.5786 7.02217 40.8284C6.28765 40.0783 5.875 39.0609 5.875 38V20Z" stroke="black" stroke-width="2" stroke-linecap="round" stroke-linejoin="round"/>
</svg>
