<svg width="40" height="40" viewBox="0 0 40 40" fill="none" xmlns="http://www.w3.org/2000/svg">
<path d="M17.44 5.47C17.7383 5.11217 18.1082 4.82083 18.526 4.61478C18.9438 4.40872 19.4002 4.29252 19.8656 4.27368C20.3311 4.25483 20.7953 4.33376 21.2284 4.50537C21.6615 4.67698 22.0538 4.93745 22.38 5.27L22.56 5.47L29.115 13.3333H34.09C34.4398 13.3326 34.7858 13.4057 35.1053 13.548C35.4248 13.6902 35.7107 13.8984 35.9442 14.1588C36.1777 14.4192 36.3536 14.726 36.4603 15.0591C36.567 15.3922 36.6021 15.7441 36.5634 16.0917L36.41 17.3683L36.2434 18.6017L36.1067 19.525L35.9484 20.5167L35.7684 21.5583L35.565 22.6383L35.3384 23.74C35.2183 24.2956 35.0895 24.8506 34.9517 25.405C34.5828 26.8684 34.1196 28.3064 33.565 29.71L33.1967 30.61L32.84 31.4233L32.5034 32.1467L32.3467 32.47L31.9317 33.2867C31.3984 34.3033 30.3917 34.9033 29.3267 34.99L29.06 35H10.925C10.3423 35.0044 9.76944 34.8504 9.26748 34.5545C8.76552 34.2586 8.35336 33.8319 8.07501 33.32L7.68835 32.57L7.38835 31.9533L7.23001 31.6117L6.89668 30.8633C6.13551 29.0959 5.51796 27.27 5.05002 25.4033C4.95953 25.0409 4.87286 24.6776 4.79002 24.3133L4.55335 23.2333L4.34168 22.1767L4.15502 21.155L3.98835 20.1767L3.84335 19.2533L3.72002 18.3983L3.57002 17.26L3.46002 16.3333L3.43168 16.0783C3.39721 15.7509 3.42819 15.4199 3.52282 15.1045C3.61745 14.7892 3.77385 14.4958 3.98292 14.2414C4.19198 13.9871 4.44954 13.7768 4.7406 13.6229C5.03167 13.469 5.35043 13.3746 5.67835 13.345L5.90502 13.3333H10.8867L17.44 5.47ZM33.1383 16.6667H6.85502L6.95835 17.4733L7.08502 18.3867L7.23835 19.3933L7.41835 20.4733C7.48502 20.8433 7.55502 21.2222 7.62835 21.61L7.86668 22.7883C7.99335 23.385 8.13335 23.9917 8.28335 24.595C8.70631 26.2797 9.26365 27.9277 9.95002 29.5233L10.2767 30.2583L10.58 30.8983L10.8517 31.4367L10.9717 31.6667H29.0167L29.2733 31.1617L29.5683 30.5533L29.8917 29.8483C30.5033 28.4733 31.2034 26.6517 31.7167 24.595C31.925 23.7617 32.11 22.915 32.275 22.0833L32.5084 20.8533L32.7084 19.6717L32.7967 19.1067L32.955 18.045L33.0834 17.095L33.1383 16.6667ZM16.6433 21.3933L17.4767 26.3933C17.5349 26.8227 17.4235 27.2579 17.1663 27.6066C16.909 27.9553 16.526 28.1901 16.0986 28.2612C15.6711 28.3323 15.2328 28.2341 14.8765 27.9875C14.5202 27.7408 14.274 27.3651 14.19 26.94L13.3567 21.94C13.3135 21.7211 13.3146 21.4958 13.3601 21.2774C13.4056 21.059 13.4944 20.8519 13.6214 20.6685C13.7484 20.4851 13.9109 20.329 14.0993 20.2095C14.2878 20.0901 14.4982 20.0096 14.7183 19.973C14.9384 19.9364 15.1636 19.9444 15.3805 19.9964C15.5975 20.0485 15.8018 20.1435 15.9813 20.276C16.1608 20.4084 16.3119 20.5756 16.4256 20.7675C16.5394 20.9594 16.6134 21.1723 16.6433 21.3933ZM25.08 20L25.2733 20.0217C25.6767 20.0882 26.0416 20.3008 26.2985 20.6188C26.5554 20.9369 26.6864 21.3383 26.6667 21.7467L26.645 21.94L25.8117 26.94C25.741 27.3585 25.5133 27.7343 25.175 27.9907C24.8367 28.2471 24.4134 28.3647 23.9913 28.3197C23.5692 28.2746 23.1803 28.0702 22.9038 27.7481C22.6273 27.4261 22.4841 27.0107 22.5033 26.5867L22.525 26.3933L23.3583 21.3933C23.4249 20.9905 23.6369 20.6262 23.9543 20.3693C24.2716 20.1125 24.6722 19.9811 25.08 20ZM20 7.60333L15.225 13.3333H24.775L20 7.60333Z" fill="white"/>
</svg>
