<svg width="85" height="84" viewBox="0 0 85 84" fill="none" xmlns="http://www.w3.org/2000/svg">
<rect x="42.4263" width="59" height="59" rx="29.5" transform="rotate(45 42.4263 0)" fill="#9652C7"/>
<path d="M56.3904 50.1445L56.3325 27.8131L34.0011 27.7551C33.7684 27.7236 33.5317 27.7425 33.307 27.8104C33.0822 27.8784 32.8747 27.9938 32.6985 28.1489C32.5222 28.304 32.3813 28.4952 32.2854 28.7095C32.1894 28.9237 32.1407 29.1561 32.1423 29.3909C32.144 29.6257 32.1961 29.8574 32.2951 30.0703C32.3941 30.2831 32.5377 30.4723 32.7161 30.6249C32.8946 30.7774 33.1037 30.8899 33.3294 30.9546C33.5551 31.0193 33.7921 31.0348 34.0243 31L50.7583 31.0695L28.5892 53.2387C28.2818 53.546 28.1091 53.9629 28.1091 54.3975C28.1091 54.8322 28.2818 55.2491 28.5892 55.5564C28.8965 55.8638 29.3134 56.0364 29.748 56.0364C30.1827 56.0364 30.5995 55.8638 30.9069 55.5564L53.0761 33.3872L53.1456 50.1213C53.1471 50.5562 53.3214 50.9727 53.63 51.2791C53.9386 51.5856 54.3563 51.7569 54.7912 51.7553C55.2261 51.7538 55.6426 51.5795 55.949 51.2709C56.2554 50.9623 56.4267 50.5446 56.4252 50.1097L56.3904 50.1445Z" fill="white"/>
</svg>
