<svg width="40" height="40" viewBox="0 0 40 40" fill="none" xmlns="http://www.w3.org/2000/svg">
<path d="M19.9994 26.8366L13.9493 30.4899C13.7716 30.5777 13.6066 30.6133 13.4543 30.5966C13.3032 30.5788 13.156 30.5266 13.0127 30.4399C12.8682 30.3511 12.7593 30.2255 12.686 30.0633C12.6127 29.9011 12.606 29.7238 12.666 29.5316L14.276 22.6816L8.95102 18.0649C8.80102 17.9427 8.70213 17.7966 8.65435 17.6266C8.60657 17.4566 8.61713 17.2938 8.68602 17.1383C8.7549 16.9827 8.84657 16.8549 8.96102 16.7549C9.07657 16.6583 9.23213 16.5927 9.42768 16.5583L16.4544 15.9449L19.1944 9.45828C19.2699 9.27494 19.3788 9.14272 19.521 9.06161C19.6632 8.9805 19.8227 8.93994 19.9994 8.93994C20.176 8.93994 20.336 8.9805 20.4794 9.06161C20.6227 9.14272 20.731 9.27494 20.8043 9.45828L23.5444 15.9449L30.5693 16.5583C30.766 16.5916 30.9221 16.6577 31.0377 16.7566C31.1532 16.8544 31.2455 16.9816 31.3143 17.1383C31.3821 17.2938 31.3921 17.4566 31.3443 17.6266C31.2966 17.7966 31.1977 17.9427 31.0477 18.0649L25.7227 22.6816L27.3327 29.5316C27.3949 29.7216 27.3888 29.8983 27.3144 30.0616C27.2399 30.2249 27.1305 30.3505 26.986 30.4383C26.8438 30.5272 26.6966 30.5799 26.5444 30.5966C26.3932 30.6133 26.2288 30.5777 26.051 30.4899L19.9994 26.8366Z" fill="black"/>
</svg>
