<svg width="40" height="40" viewBox="0 0 40 40" fill="none" xmlns="http://www.w3.org/2000/svg">
<path d="M16.6666 24.9999L25.3166 19.9999L16.6666 14.9999V24.9999ZM35.9333 11.9499C36.15 12.7333 36.3 13.7833 36.4 15.1166C36.5166 16.4499 36.5666 17.5999 36.5666 18.5999L36.6666 19.9999C36.6666 23.6499 36.4 26.3333 35.9333 28.0499C35.5166 29.5499 34.55 30.5166 33.05 30.9333C32.2666 31.1499 30.8333 31.2999 28.6333 31.3999C26.4666 31.5166 24.4833 31.5666 22.65 31.5666L20 31.6666C13.0166 31.6666 8.66665 31.3999 6.94998 30.9333C5.44998 30.5166 4.48331 29.5499 4.06665 28.0499C3.84998 27.2666 3.69998 26.2166 3.59998 24.8833C3.48331 23.5499 3.43331 22.3999 3.43331 21.3999L3.33331 19.9999C3.33331 16.3499 3.59998 13.6666 4.06665 11.9499C4.48331 10.4499 5.44998 9.48325 6.94998 9.06659C7.73331 8.84992 9.16665 8.69992 11.3666 8.59992C13.5333 8.48325 15.5166 8.43325 17.35 8.43325L20 8.33325C26.9833 8.33325 31.3333 8.59992 33.05 9.06659C34.55 9.48325 35.5166 10.4499 35.9333 11.9499Z" fill="#333333"/>
</svg>
